<svg version="1.1" id="Layer_1" xmlns="http://www.w3.org/2000/svg" xmlns:xlink="http://www.w3.org/1999/xlink" x="0px" y="0px"
	 width="100%" viewBox="0 0 1024 1024" enable-background="new 0 0 1024 1024" xml:space="preserve">
<path fill="#1FA6A0" opacity="1.000000" stroke="none" 
	d="
M528.979370,820.815674 
	C527.614929,826.905396 526.407776,832.603455 525.056213,838.267090 
	C523.296448,845.641418 519.425903,849.213928 513.401611,849.218079 
	C507.288727,849.222290 503.594788,845.902832 501.837219,838.274902 
	C494.251404,805.352295 486.809021,772.396729 479.213165,739.476440 
	C471.353973,705.414917 463.384583,671.378906 455.449738,637.334900 
	C451.936768,622.262634 448.234680,607.231873 444.958008,592.108704 
	C444.031677,587.833313 441.895905,586.054810 437.828339,585.120911 
	C403.758423,577.299133 369.742493,569.242310 335.677216,561.400085 
	C298.041779,552.735901 260.372833,544.217163 222.715042,535.650208 
	C214.766861,533.842102 206.749481,532.308716 198.864166,530.262634 
	C192.170441,528.525696 188.820053,524.562073 188.849625,519.442017 
	C188.880219,514.141785 192.447449,510.031921 199.384384,508.554260 
	C223.140915,503.493652 246.960266,498.728882 270.738220,493.767639 
	C328.892578,481.633972 387.058167,469.551819 445.154388,457.145233 
	C451.196838,455.854889 455.273743,457.121826 459.377289,461.367371 
	C471.101501,473.497284 483.840698,484.441772 497.955872,493.779449 
	C508.110474,500.497040 518.039429,500.824524 528.239990,494.056702 
	C542.474487,484.612396 555.215515,473.383545 567.161621,461.261536 
	C571.321716,457.040161 575.335144,455.748291 581.364014,457.045929 
	C628.857056,467.268158 676.421631,477.159393 723.985046,487.052643 
	C757.699219,494.065247 791.452148,500.891449 825.171204,507.881012 
	C830.489136,508.983337 835.671692,510.616119 837.217346,516.870117 
	C838.657959,522.698547 836.178955,527.381165 830.416077,529.564026 
	C821.644043,532.886658 812.317078,533.970886 803.242188,536.054688 
	C763.817932,545.107422 724.350647,553.972473 684.909302,562.950806 
	C653.740845,570.045959 622.610229,577.309875 591.406677,584.246216 
	C585.607971,585.535217 582.425171,587.752502 580.981140,594.125549 
	C567.704834,652.720093 554.000366,711.217529 540.476990,769.756226 
	C536.581543,786.618713 532.868896,803.523376 528.979370,820.815674 
z"/>
<path fill="#1FA6A0" opacity="1.000000" stroke="none" 
	d="
M439.209625,274.329895 
	C454.609375,233.515533 477.158295,197.252289 503.282684,163.081131 
	C509.279266,155.237503 517.336914,154.944382 522.971436,162.526611 
	C552.218994,201.884125 578.161316,243.099167 592.486389,290.553070 
	C600.836548,318.214203 604.084167,346.228241 596.714722,374.700104 
	C589.778442,401.498413 575.602478,424.157318 556.677795,444.052216 
	C546.090027,455.182770 534.677246,465.397278 522.340637,474.550293 
	C515.969727,479.277100 511.027527,479.532745 504.914368,474.997955 
	C481.710510,457.785126 461.154907,437.990356 446.022797,413.095276 
	C428.652710,384.518402 422.514587,353.708893 427.360840,320.563385 
	C429.662323,304.822632 433.774719,289.627930 439.209625,274.329895 
M558.104919,259.349030 
	C546.036316,233.354309 531.193481,209.078613 513.726685,185.994675 
	C505.986481,193.019318 501.754059,201.431458 496.670349,209.170593 
	C477.650848,238.124619 461.821411,268.618561 452.597534,302.227295 
	C446.044464,326.104553 444.408997,350.124054 451.422974,374.151672 
	C461.259033,407.846710 483.921844,432.059204 510.645264,453.189209 
	C513.446655,455.404266 515.261963,453.703217 517.191772,452.154663 
	C534.837585,437.995575 550.865234,422.313599 562.643799,402.777985 
	C577.881042,377.505890 582.734863,350.274414 578.052795,321.157745 
	C574.610840,299.753296 567.425415,279.617188 558.104919,259.349030 
z"/>
</svg>